<?xml version="1.0" encoding="UTF-8" standalone="no"?>
<svg
   xmlns:dc="http://purl.org/dc/elements/1.1/"
   xmlns:cc="http://creativecommons.org/ns#"
   xmlns:rdf="http://www.w3.org/1999/02/22-rdf-syntax-ns#"
   xmlns:svg="http://www.w3.org/2000/svg"
   xmlns="http://www.w3.org/2000/svg"
   viewBox="0 0 513.46735 736.7956"
   height="736.79559"
   width="513.46735"
   xml:space="preserve"
   id="svg2"
   version="1.1"><metadata
     id="metadata8"><rdf:RDF><cc:Work
         rdf:about=""><dc:format>image/svg+xml</dc:format><dc:type
           rdf:resource="http://purl.org/dc/dcmitype/StillImage" /><dc:title></dc:title></cc:Work></rdf:RDF></metadata><defs
     id="defs6"><clipPath
       id="clipPath20"
       clipPathUnits="userSpaceOnUse"><path
         id="path18"
         d="M 60.773,55.945 H 689.228 V 490.946 H 60.773 Z" /></clipPath><clipPath
       id="clipPath64"
       clipPathUnits="userSpaceOnUse"><path
         id="path62"
         d="m 404.727,326.34 h 28.076 v -8.409 h -28.076 z" /></clipPath><clipPath
       id="clipPath132"
       clipPathUnits="userSpaceOnUse"><path
         id="path130"
         d="M 385.653,359.28 H 404.25 V 340.684 H 385.653 Z" /></clipPath><clipPath
       id="clipPath148"
       clipPathUnits="userSpaceOnUse"><path
         id="path146"
         d="m 429.102,360.79 h 18.595 v -18.596 h -18.595 z" /></clipPath><clipPath
       id="clipPath176"
       clipPathUnits="userSpaceOnUse"><path
         id="path174"
         d="m 408.779,382.816 h 11.683 v -21.302 h -11.683 z" /></clipPath><clipPath
       id="clipPath252"
       clipPathUnits="userSpaceOnUse"><path
         id="path250"
         d="m 226.114,343.529 h 21.91 v -8.154 h -21.91 z" /></clipPath><clipPath
       id="clipPath320"
       clipPathUnits="userSpaceOnUse"><path
         id="path318"
         d="m 235.65,389.308 h 8.906 v -17.897 h -8.906 z" /></clipPath><clipPath
       id="clipPath344"
       clipPathUnits="userSpaceOnUse"><path
         id="path342"
         d="m 209.776,374.947 h 16.651 v -16.652 h -16.651 z" /></clipPath><clipPath
       id="clipPath360"
       clipPathUnits="userSpaceOnUse"><path
         id="path358"
         d="m 249.129,376.362 h 16.65 v -16.653 h -16.65 z" /></clipPath><clipPath
       id="clipPath468"
       clipPathUnits="userSpaceOnUse"><path
         id="path466"
         d="m 550.879,243.369 h 28.603 v -10.044 h -28.603 z" /></clipPath><clipPath
       id="clipPath504"
       clipPathUnits="userSpaceOnUse"><path
         id="path502"
         d="m 436.399,203.033 h 29.532 v -9.349 h -29.532 z" /></clipPath><clipPath
       id="clipPath560"
       clipPathUnits="userSpaceOnUse"><path
         id="path558"
         d="m 293.97,225.576 h 25.513 V 217.56 H 293.97 Z" /></clipPath><clipPath
       id="clipPath612"
       clipPathUnits="userSpaceOnUse"><path
         id="path610"
         d="m 166.301,222.793 h 21.239 v -9.997 h -21.239 z" /></clipPath><clipPath
       id="clipPath648"
       clipPathUnits="userSpaceOnUse"><path
         id="path646"
         d="m 316.626,258.125 h 19.535 V 238.59 h -19.535 z" /></clipPath><clipPath
       id="clipPath740"
       clipPathUnits="userSpaceOnUse"><path
         id="path738"
         d="m 179.923,268.456 h 12.307 v -8.822 h -12.307 z" /></clipPath><clipPath
       id="clipPath872"
       clipPathUnits="userSpaceOnUse"><path
         id="path870"
         d="m 294.913,263.6 h 9.665 v -6.924 h -9.665 z" /></clipPath><clipPath
       id="clipPath948"
       clipPathUnits="userSpaceOnUse"><path
         id="path946"
         d="m 408.403,236.136 h 20.508 v -20.509 h -20.508 z" /></clipPath><clipPath
       id="clipPath964"
       clipPathUnits="userSpaceOnUse"><path
         id="path962"
         d="m 270.035,257.906 h 18.823 v -18.821 h -18.823 z" /></clipPath><clipPath
       id="clipPath980"
       clipPathUnits="userSpaceOnUse"><path
         id="path978"
         d="m 459.606,240.621 h 20.51 v -20.507 h -20.51 z" /></clipPath><clipPath
       id="clipPath996"
       clipPathUnits="userSpaceOnUse"><path
         id="path994"
         d="m 528.158,272.369 h 20.509 v -20.508 h -20.509 z" /></clipPath><clipPath
       id="clipPath1012"
       clipPathUnits="userSpaceOnUse"><path
         id="path1010"
         d="m 570.218,283.289 h 20.51 V 262.78 h -20.51 z" /></clipPath><clipPath
       id="clipPath1028"
       clipPathUnits="userSpaceOnUse"><path
         id="path1026"
         d="m 151.431,260.843 h 20.511 v -20.508 h -20.511 z" /></clipPath><clipPath
       id="clipPath1044"
       clipPathUnits="userSpaceOnUse"><path
         id="path1042"
         d="m 192.077,254.979 h 20.509 v -20.508 h -20.509 z" /></clipPath><clipPath
       id="clipPath1072"
       clipPathUnits="userSpaceOnUse"><path
         id="path1070"
         d="M 410.562,257.112 H 436.7 v -26.139 h -26.138 z" /></clipPath><clipPath
       id="clipPath1088"
       clipPathUnits="userSpaceOnUse"><path
         id="path1086"
         d="m 448.587,257.478 h 26.142 v -26.136 h -26.142 z" /></clipPath><clipPath
       id="clipPath1112"
       clipPathUnits="userSpaceOnUse"><path
         id="path1110"
         d="m 436.709,245.466 h 11.273 v -9.042 h -11.273 z" /></clipPath><clipPath
       id="clipPath1136"
       clipPathUnits="userSpaceOnUse"><path
         id="path1134"
         d="m 415.783,252.08 h 4.65 v -5.969 h -4.65 z" /></clipPath><clipPath
       id="clipPath1152"
       clipPathUnits="userSpaceOnUse"><path
         id="path1150"
         d="m 452.585,252.754 h 4.65 v -5.968 h -4.65 z" /></clipPath><clipPath
       id="clipPath1212"
       clipPathUnits="userSpaceOnUse"><path
         id="path1210"
         d="m 554.631,282.5 h 9.412 v -7.203 h -9.412 z" /></clipPath><clipPath
       id="clipPath1268"
       clipPathUnits="userSpaceOnUse"><path
         id="path1266"
         d="M 0,500 H 750 V 0 H 0 Z" /></clipPath><filter
       id="filter3475"
       style="color-interpolation-filters:sRGB"><feFlood
         id="feFlood3465"
         result="flood"
         flood-color="rgb(0,0,0)"
         flood-opacity="0.498039" /><feComposite
         id="feComposite3467"
         result="composite1"
         operator="in"
         in2="SourceGraphic"
         in="flood" /><feGaussianBlur
         id="feGaussianBlur3469"
         result="blur"
         stdDeviation="3"
         in="composite1" /><feOffset
         id="feOffset3471"
         result="offset"
         dy="6"
         dx="6" /><feComposite
         id="feComposite3473"
         result="composite2"
         operator="over"
         in2="offset"
         in="SourceGraphic" /></filter><filter
       id="filter1055"
       style="color-interpolation-filters:sRGB"><feFlood
         id="feFlood1045"
         result="flood"
         flood-color="rgb(0,0,0)"
         flood-opacity="0.498039" /><feComposite
         id="feComposite1047"
         result="composite1"
         operator="in"
         in2="SourceGraphic"
         in="flood" /><feGaussianBlur
         id="feGaussianBlur1049"
         result="blur"
         stdDeviation="8.7"
         in="composite1" /><feOffset
         id="feOffset1051"
         result="offset"
         dy="5"
         dx="1.4" /><feComposite
         id="feComposite1053"
         result="composite2"
         operator="over"
         in2="offset"
         in="SourceGraphic" /></filter></defs><g
     transform="matrix(1.3333333,0,0,-1.3333333,-117.35858,809.89011)"
     id="g10"><g
       style="filter:url(#filter1055)"
       transform="rotate(-14.169442,370.43304,35.537557)"
       id="g815"><g
         id="g665"><g
           id="g378"><g
             id="g973"><g
               id="g519"
               transform="translate(-38.015566,-11.264644)"><rect
                 transform="matrix(0.92403127,0.3823169,0.3823169,-0.92403127,0,0)"
                 y="-448.43747"
                 x="192.32605"
                 height="511.76633"
                 width="313.54941"
                 id="rect2068"
                 style="opacity:1;fill:#ffffff;fill-opacity:1;stroke:#000000;stroke-width:0.89566332;stroke-linecap:round;stroke-linejoin:round;stroke-miterlimit:4;stroke-dasharray:none;stroke-opacity:1;paint-order:markers stroke fill" /><path
                 id="path12"
                 style="fill:#f3a712;fill-opacity:1;fill-rule:nonzero;stroke:none;stroke-width:0.55080462"
                 d="M 194.24781,88.53224 442.58271,191.28053 280.7379,582.44728 32.403002,479.699 Z" /></g><g
               id="g823"
               transform="translate(0.30678199,0.51399627)"><path
                 style="fill:#1a1a1a;fill-rule:evenodd;stroke:#000000;stroke-width:0.75px;stroke-linecap:butt;stroke-linejoin:miter;stroke-opacity:1"
                 d="m 303.46974,345.4821 0.47181,-23.05013 20.4646,-33.18584 10e-6,-34.29204 -8.29647,-18.25221 -13.27434,-4.97788 -62.92364,93.96815 z"
                 id="path515" /><g
                 clip-path="url(#clipPath20)"
                 id="g16"
                 transform="matrix(1.2055963,0.4988141,-0.4988141,1.2055963,117.72215,-17.834966)"><g
                   transform="translate(174.4705,209.3232)"
                   id="g226"><path
                     id="path228"
                     style="fill:#fba18c;fill-opacity:1;fill-rule:nonzero;stroke:none"
                     d="m 0,0 c -1.152,-25.801 -1.918,-30.969 0.196,-38.932 1.526,-5.737 4.314,-4.051 4.314,-4.051 l 1.182,0.265 c 0.718,-2.074 1.687,-3.397 3.015,-3.38 2.614,0.069 1.975,5.097 1.975,5.097 l 0.183,0.059 c 0.736,-2.202 1.764,-3.727 3.207,-3.43 3.005,0.614 1.304,8.149 2.022,12.366 l 0.297,0.071 c 2.357,-9.124 4.871,-5.745 4.871,-5.745 l 0.018,0.003 c -0.402,7.814 -0.666,13.48 -0.76,15.276 -1.478,0.402 0.626,5.22 0.626,5.22 1.23,32.803 8.955,56.535 12.538,76.033 l -0.809,3.235 C 26.225,62.382 14.761,68.842 11.087,74.436 10.483,71.547 1.119,24.999 0,0" /></g><g
                   transform="translate(183.4339,163.5693)"
                   id="g230"><path
                     id="path232"
                     style="fill:#b77e73;fill-opacity:1;fill-rule:nonzero;stroke:none"
                     d="M 0,0 C 0,0 -0.073,0.005 -0.211,0.016 -0.179,0.013 -0.5,0.102 -0.7,0.157 -0.84,0.256 -1.004,0.362 -1.21,0.574 -1.395,0.797 -1.573,1.078 -1.759,1.406 -1.924,1.758 -2.087,2.15 -2.243,2.588 c -0.068,0.223 -0.138,0.453 -0.212,0.688 -0.049,0.238 -0.101,0.476 -0.154,0.721 -0.12,0.531 -0.249,1.077 -0.373,1.632 -0.172,0.558 -0.193,1.107 -0.296,1.656 -0.182,1.101 -0.397,2.189 -0.53,3.266 -0.147,1.067 -0.351,2.056 -0.475,2.917 -0.28,1.715 -0.552,2.863 -0.552,2.863 -0.027,0.129 -0.155,0.215 -0.286,0.185 -0.1,-0.021 -0.173,-0.112 -0.189,-0.208 0.002,0 -0.136,-1.168 -0.216,-2.926 -0.056,-0.878 0.005,-1.905 0.044,-3.006 C -5.44,9.825 -5.458,9.266 -5.359,8.672 -5.28,8.087 -5.198,7.49 -5.113,6.894 -5.018,6.301 -4.945,5.687 -4.778,5.15 -4.619,4.599 -4.463,4.062 -4.312,3.542 -4.225,3.253 -4.14,2.982 -4.057,2.712 -3.942,2.456 -3.828,2.206 -3.72,1.968 -3.484,1.482 -3.212,1.04 -2.916,0.65 c 0.303,-0.389 0.644,-0.712 1.003,-0.946 0.353,-0.229 0.754,-0.366 1.099,-0.428 0.301,-0.002 0.382,-0.002 0.681,0.038 C 0,-0.647 0.07,-0.627 0.07,-0.627 0.24,-0.579 0.337,-0.402 0.289,-0.229 0.251,-0.096 0.13,-0.01 0,0" /></g><g
                   transform="translate(188.5286,165.2695)"
                   id="g234"><path
                     id="path236"
                     style="fill:#b77e73;fill-opacity:1;fill-rule:nonzero;stroke:none"
                     d="m 0,0 c 0,0 -0.068,0.008 -0.198,0.022 -0.119,0.021 -0.367,0.026 -0.461,0.129 -0.117,0.046 -0.303,0.205 -0.477,0.39 -0.169,0.21 -0.333,0.48 -0.504,0.795 -0.15,0.339 -0.307,0.705 -0.45,1.125 -0.081,0.2 -0.131,0.433 -0.199,0.652 -0.02,0.084 -0.097,0.286 -0.079,0.279 l -0.073,0.375 c -0.181,1.016 -0.444,2.091 -0.673,3.159 -0.142,1.045 -0.298,2.095 -0.482,3.073 -0.163,0.989 -0.25,1.942 -0.399,2.747 -0.152,0.824 -0.213,1.473 -0.268,1.95 -0.062,0.468 -0.115,0.749 -0.115,0.749 l -0.005,0.048 c -0.024,0.132 -0.152,0.215 -0.277,0.195 -0.098,-0.023 -0.168,-0.093 -0.19,-0.182 0,0 -0.065,-0.271 -0.148,-0.759 -0.065,-0.483 -0.236,-1.214 -0.244,-2.041 -0.013,-0.423 -0.028,-0.878 -0.047,-1.356 0.012,-0.486 -0.045,-0.992 0.021,-1.526 0.075,-1.062 0.194,-2.198 0.331,-3.341 0.233,-1.08 0.499,-2.142 0.781,-3.136 l 0.105,-0.369 c 0.071,-0.261 0.103,-0.287 0.161,-0.439 0.11,-0.242 0.201,-0.475 0.324,-0.705 0.218,-0.458 0.488,-0.875 0.761,-1.25 0.289,-0.369 0.61,-0.678 0.951,-0.91 0.362,-0.208 0.684,-0.372 1.047,-0.4 0.366,-0.071 0.504,0.025 0.641,0.043 0.129,0.033 0.198,0.048 0.198,0.048 0.173,0.043 0.28,0.212 0.24,0.387 C 0.242,-0.116 0.129,-0.021 0,0" /></g><g
                   transform="translate(195.4856,171.8359)"
                   id="g238"><path
                     id="path240"
                     style="fill:#b77e73;fill-opacity:1;fill-rule:nonzero;stroke:none"
                     d="M 0,0 C -0.006,-0.005 -0.161,-0.126 -0.477,-0.232 -0.624,-0.299 -0.8,-0.278 -0.956,-0.24 -1.109,-0.156 -1.271,-0.083 -1.452,0.137 -1.626,0.329 -1.817,0.597 -1.985,0.924 -2.168,1.22 -2.306,1.621 -2.491,1.985 -2.786,2.782 -3.102,3.65 -3.366,4.553 -3.499,4.988 -3.63,5.431 -3.76,5.858 -3.878,6.321 -3.99,6.779 -4.1,7.22 c -0.233,0.877 -0.47,1.697 -0.7,2.392 -0.461,1.384 -0.852,2.292 -0.852,2.292 -0.051,0.124 -0.193,0.18 -0.316,0.129 -0.093,-0.041 -0.146,-0.135 -0.149,-0.225 0.004,0 -0.007,-0.992 0.099,-2.458 0.055,-0.727 0.149,-1.572 0.272,-2.477 0.068,-0.448 0.137,-0.913 0.209,-1.384 0.12,-0.552 0.245,-0.979 0.373,-1.479 0.285,-0.954 0.634,-1.91 1.076,-2.771 0.467,-0.857 1.005,-1.662 1.78,-2.19 0.356,-0.278 0.863,-0.415 1.283,-0.409 0.432,0.04 0.776,0.181 0.986,0.356 0.419,0.318 0.536,0.638 0.534,0.619 C 0.603,-0.25 0.581,-0.056 0.443,0.051 0.306,0.162 0.108,0.142 0,0" /></g><g
                   transform="translate(212.283,294.292)"
                   id="g286"><path
                     id="path288"
                     style="fill:#8d3735;fill-opacity:1;fill-rule:nonzero;stroke:none"
                     d="m 0,0 c 0,0 -0.146,-1.58 -0.505,-3.919 -0.364,-2.343 -0.967,-5.436 -1.677,-8.507 -0.71,-3.07 -1.535,-6.114 -2.225,-8.38 -0.701,-2.265 -1.249,-3.758 -1.249,-3.758 -0.045,-0.124 -0.183,-0.188 -0.308,-0.145 -0.102,0.039 -0.166,0.144 -0.156,0.249 0,0 0.148,1.582 0.495,3.927 0.355,2.341 0.924,5.442 1.611,8.517 0.682,3.078 1.476,6.128 2.16,8.398 0.686,2.269 1.236,3.76 1.236,3.76 0.061,0.163 0.243,0.249 0.409,0.188 C -0.069,0.281 0.013,0.142 0,0" /></g><g
                   transform="translate(202.3201,157.8096)"
                   id="g290"><path
                     id="path292"
                     style="fill:#3f505b;fill-opacity:1;fill-rule:nonzero;stroke:none"
                     d="m 0,0 c 0,0 0.38,0.235 1.042,0.653 0.31,0.198 0.788,0.46 1.152,0.716 0.444,0.314 0.947,0.66 1.491,1.039 1.068,0.741 2.254,1.718 3.531,2.747 0.616,0.539 1.271,1.078 1.901,1.657 0.619,0.597 1.245,1.205 1.871,1.811 0.595,0.638 1.193,1.273 1.781,1.9 0.605,0.607 1.083,1.31 1.611,1.933 0.512,0.642 1.033,1.239 1.442,1.866 0.434,0.613 0.843,1.197 1.223,1.731 0.349,0.46 0.654,1.069 0.938,1.508 0.28,0.467 0.524,0.872 0.725,1.206 0.413,0.665 0.648,1.045 0.648,1.045 0.143,0.235 0.452,0.305 0.686,0.164 0.214,-0.131 0.293,-0.403 0.195,-0.625 0,0 -0.181,-0.413 -0.498,-1.122 C 19.573,17.874 19.376,17.441 19.15,16.948 18.896,16.447 18.728,15.916 18.313,15.276 17.575,14.141 16.856,12.698 15.773,11.381 15.24,10.718 14.751,9.977 14.138,9.324 13.539,8.659 12.931,7.986 12.324,7.306 11.022,6.036 9.665,4.829 8.329,3.777 6.996,2.72 5.654,1.859 4.489,1.139 3.914,0.771 3.374,0.501 2.895,0.235 2.327,-0.062 1.95,-0.207 1.581,-0.384 0.865,-0.703 0.457,-0.88 0.457,-0.88 c -0.25,-0.111 -0.545,0 -0.656,0.253 -0.102,0.231 -0.016,0.491 0.19,0.62 z" /></g><g
                   transform="translate(244.1292,171.5449)"
                   id="g578"
                   style="fill:#784421"><path
                     id="path580"
                     style="fill:#784421;fill-opacity:1;fill-rule:nonzero;stroke:none"
                     d="m 0,0 c 5.257,-5.501 13.976,-14.385 16.598,-15.726 0.355,-0.176 0.776,-0.338 1.261,-0.503 0.162,-9.155 0.178,-18.86 -0.404,-22.014 -0.291,-1.554 -0.6,-3.511 -0.955,-5.745 -2.216,0 -4.368,0.195 -6.341,0.696 -9.997,2.491 -32.193,23.084 -35.057,25.771 6.973,4.269 15.968,15.174 20.966,21.662 C -3.431,3.604 -1.958,2.039 0,0" /></g><g
                   transform="translate(227.013,298.3232)"
                   id="g582"><path
                     id="path584"
                     style="fill:#1a1a1a;fill-opacity:1;fill-rule:nonzero;stroke:none"
                     d="m 0,0 c 4.044,-5.646 5.565,-11.89 4.708,-19.347 -1.505,-13.039 -3.511,-18.815 3.51,-23.07 4.335,-2.636 7.263,-6.825 7.345,-11.938 -0.146,-1.246 -0.275,-2.443 -0.389,-3.608 -0.469,-2.151 -1.424,-4.415 -2.944,-6.776 -6.261,-9.789 -6.261,-13.559 -3.009,-19.574 1.812,-3.351 2.702,-7.492 1.779,-11.129 -6.616,-0.084 -12.975,0.986 -18.619,2.147 v -0.013 c -10.904,7.212 -23.652,4.949 -29.282,3.398 -1.844,-0.488 -2.911,-0.924 -2.911,-0.924 l 0.339,10.482 c 16.873,1.844 24.12,17.116 24.12,17.116 0,0 7.766,-0.759 11.535,6.52 3.769,7.263 -1.262,14.042 -7.021,11.031 l 0.243,10.791 0.161,0.308 C -29.394,-25.188 -36.221,-3.429 -38.081,4.238 -39.44,0.049 -49.955,-29.912 -75.144,-33.6 l 1.343,-0.048 -0.744,-4.012 c 0,0 -6.519,5.775 -10.531,0 -4.011,-5.775 0.243,-17.552 9.027,-17.552 0,0 4.158,-12.942 15.773,-20.318 l -2.475,-8.525 -0.34,-0.227 c -0.356,0.404 -0.631,0.761 -0.841,1.067 l -0.146,-0.096 c -0.938,0.519 -2.135,1.457 -3.511,2.702 -9.641,8.703 -28.035,32.418 -28.035,32.418 -0.534,-0.729 -1.051,-1.424 -1.568,-2.104 -0.712,2.071 -2.572,7.571 -4.788,15.271 3.494,8.283 8.444,4.692 13.393,8.398 4.482,3.363 0.163,17.73 10.452,31.123 1.213,1.603 2.652,3.189 4.334,4.741 3.009,2.765 6.1,4.61 9.157,5.758 12.957,5 24.961,-2.247 24.961,-2.247 0,0 10.047,6.633 22.065,1.553 1.391,-0.6 2.831,-1.36 4.272,-2.299 C -7.441,8.137 -3.025,4.238 0,0" /></g><g
                   transform="translate(240.1971,175.6855)"
                   id="g586"><path
                     id="path588"
                     style="fill:#ffffff;fill-opacity:1;fill-rule:nonzero;stroke:none"
                     d="m 0,0 c -4.998,-6.487 -13.993,-17.393 -20.966,-21.662 -0.791,-0.501 -1.569,-0.905 -2.314,-1.212 l -13.539,18.068 -0.825,2.687 C -41.43,26.74 -49.777,31.594 -49.777,31.594 l -0.308,1.134 c 5.63,1.55 18.378,3.814 29.282,-3.398 0.436,-0.291 0.873,-0.584 1.294,-0.908 C -4.836,17.52 3.818,5.095 3.818,5.095 3.818,5.095 2.346,3.025 0,0" /></g><g
                   transform="translate(217.679,326.1323)"
                   id="g590"
                   style="fill:#1a1a1a"><path
                     id="path592"
                     style="fill:#1a1a1a;fill-opacity:1;fill-rule:nonzero;stroke:none"
                     d="m 0,0 c 10.014,3.753 28.552,-14.527 9.334,-27.809 -3.025,4.238 -7.441,8.137 -13.346,12.003 -1.441,0.939 -2.881,1.699 -4.272,2.299 C -8.396,-12.876 -9.69,-3.64 0,0" /></g><g
                   transform="translate(187.2166,207.3935)"
                   id="g594"><path
                     id="path596"
                     style="fill:#ffffff;fill-opacity:1;fill-rule:nonzero;stroke:none"
                     d="m 0,0 -0.016,0.096 c 0,0 1.068,0.435 2.912,0.924 l 0.308,-1.134 c 0,0 8.346,-4.854 12.132,-33.713 l 0.826,-2.687 c -1.505,0 0.759,-45.377 0.759,-51.799 0,-1.505 -4.9,-5.646 -16.937,-3.769 -0.371,0.063 -0.76,0.129 -1.148,0.195 -12.165,2.119 -31.869,8.444 -40.994,7.715 -4.9,-0.388 -13.281,0.827 -20.351,3.154 -6.502,2.153 -11.889,5.242 -12.375,8.884 -0.162,1.163 0.34,3.913 1.198,7.618 3.365,14.138 12.342,42.11 12.342,48.061 0,0 -0.808,0.792 -2.118,2.12 l 4.108,0.194 c 0,0 21.031,7.281 29.653,22.923 l 1.909,1.538 c 1.375,-1.244 2.572,-2.182 3.511,-2.701 l 0.145,0.096 c 0.21,-0.306 0.485,-0.663 0.842,-1.068 C -20.334,3.25 -12.051,-2.962 0,0" /></g><g
                   transform="translate(185.5672,109.0508)"
                   id="g598"><path
                     id="path600"
                     style="fill:#004278;fill-opacity:1;fill-rule:nonzero;stroke:none"
                     d="M 0,0 C 0,0 7.539,-15.516 5.823,-35.332 1.439,-86.37 -12.991,-135.42 -12.991,-135.42 c -13.426,-1.796 -25.348,-1.828 -35.573,-0.938 -21.192,1.846 -35.104,7.684 -40.005,10.062 -1.311,0.617 -1.974,1.007 -1.974,1.007 0,0 -8.655,66.843 1.892,97.318 10.531,30.481 27.08,41.383 27.08,41.383 C -31.593,-2.264 0,0 0,0" /></g><g
                   transform="translate(216.1736,252.6387)"
                   id="g602"
                   style="fill:#784421"><path
                     id="path604"
                     style="fill:#784421;fill-opacity:1;fill-rule:nonzero;stroke:none"
                     d="m 0,0 0.244,10.791 0.161,0.307 c -18.959,9.399 -25.787,31.157 -27.646,38.824 -1.36,-4.189 -11.874,-34.149 -37.064,-37.837 l 1.344,-0.048 -0.745,-4.012 c 0,0 -6.519,5.775 -10.53,0 -4.012,-5.775 0.242,-17.552 9.026,-17.552 0,0 4.159,-12.943 15.773,-20.319 l -2.475,-8.524 -0.339,-0.228 c 2.96,-3.397 11.243,-9.609 23.294,-6.647 l -0.016,0.096 0.34,10.482 c 16.872,1.844 24.119,17.115 24.119,17.115 0,0 7.766,-0.759 11.535,6.521 C 10.791,-3.769 5.759,3.01 0,0" /></g><g
                   id="g606"><g
                     id="g608" /><g
                     id="g620"><g
                       style="opacity:0.19999701"
                       id="g618"
                       clip-path="url(#clipPath612)"><g
                         id="g616"
                         transform="translate(187.3733,212.7969)"><path
                           id="path614"
                           style="fill:#5a287f;fill-opacity:1;fill-rule:nonzero;stroke:none"
                           d="m 0,0 0.167,5.175 c -2.248,-0.242 -4.643,-0.242 -7.231,0.048 -5.371,0.599 -9.852,2.393 -13.572,4.773 l -0.437,-1.5 C -15.72,2.276 -7.979,0.468 0,0" /></g></g></g></g><g
                   transform="translate(186.0525,115.5068)"
                   id="g622"
                   style="fill:#784421"><path
                     id="path624"
                     style="fill:#784421;fill-opacity:1;fill-rule:nonzero;stroke:none"
                     d="m 0,0 -0.485,-6.456 c 0,0 -31.594,-2.264 -61.572,13.412 l 0.712,3.913 C -54.275,8.542 -45.894,7.327 -40.994,7.715 -31.869,8.443 -12.165,2.119 0,0" /></g><g
                   transform="translate(162.2557,313.5962)"
                   id="g626"
                   style="fill:#1a1a1a"><path
                     id="path628"
                     style="fill:#1a1a1a;fill-opacity:1;fill-rule:nonzero;stroke:none"
                     d="m 0,0 0.114,-0.277 c -3.058,-1.148 -6.148,-2.993 -9.157,-5.758 -1.683,-1.552 -3.122,-3.138 -4.334,-4.741 -8.802,0.713 -12.927,9.869 -10.208,17.536 2.766,7.782 12.795,12.296 20.318,6.52 C 4.255,7.521 0,0 0,0" /></g><g
                   transform="translate(129.8206,248.0283)"
                   id="g630"><path
                     id="path632"
                     style="fill:#ffffff;fill-opacity:1;fill-rule:nonzero;stroke:none"
                     d="m 0,0 c 0.518,0.68 1.035,1.375 1.569,2.104 0,0 18.393,-23.715 28.035,-32.418 l -1.909,-1.539 C 19.073,-47.495 -1.958,-54.775 -1.958,-54.775 l -4.108,-0.195 c -4.109,4.078 -13.218,13.268 -19.218,19.979 -3.35,3.754 -5.744,6.73 -5.744,7.621 0,1.229 2.087,1.778 5.938,3.88 5.306,2.896 13.943,8.77 25.09,23.49" /></g><g
                   transform="translate(125.0325,263.2993)"
                   id="g634"><path
                     id="path636"
                     style="fill:#784421;fill-opacity:1;fill-rule:nonzero;stroke:none"
                     d="m 0,0 c 2.216,-7.7 4.076,-13.2 4.788,-15.271 -11.147,-14.72 -19.784,-20.594 -25.09,-23.49 -28.635,41.366 -13.039,134.595 -9.707,136.456 4.514,2.507 3.009,-9.027 3.009,-9.027 0,0 3.77,13.039 7.038,12.537 2.814,-0.437 1.26,-12.036 1.083,-13.363 0.404,1.262 3.85,12.019 6.681,10.596 3.008,-1.503 0.259,-14.041 0.259,-14.041 0,0 4.19,3.576 6.196,1.068 2.006,-2.507 -5.08,-11.47 -5.08,-11.47 C -12.118,47.82 -5.129,17.942 0,0" /></g><g
                   transform="translate(123.7542,193.0586)"
                   id="g638"
                   style="fill:#1a1a1a"><path
                     id="path640"
                     style="fill:#1a1a1a;fill-opacity:1;fill-rule:nonzero;stroke:none"
                     d="m 0,0 c 1.311,-1.328 2.119,-2.12 2.119,-2.12 0,-5.951 -8.978,-33.923 -12.343,-48.061 -29.345,2.846 -21.452,21.062 -16.502,28.002 5.016,7.022 0.503,11.534 -2.004,21.565 -2.508,10.029 8.04,19.557 8.04,19.557 l 1.472,1.036 C -13.217,13.268 -4.109,4.078 0,0" /></g><g
                   transform="translate(189.2566,302.4546)"
                   id="g662"
                   style="fill:#000000"><path
                     id="path664"
                     style="fill:#000000;fill-opacity:1;fill-rule:nonzero;stroke:none"
                     d="m 0,0 c 0,0 -0.257,-0.881 -0.789,-2.396 -0.534,-1.512 -1.333,-3.665 -2.489,-6.164 -1.17,-2.489 -2.61,-5.372 -4.471,-8.278 -1.835,-2.918 -4.032,-5.892 -6.524,-8.616 -1.265,-1.344 -2.575,-2.65 -3.964,-3.826 -1.364,-1.207 -2.817,-2.261 -4.245,-3.245 -1.452,-0.952 -2.915,-1.779 -4.351,-2.466 -1.434,-0.69 -2.835,-1.245 -4.15,-1.687 -0.664,-0.2 -1.292,-0.423 -1.905,-0.579 -0.615,-0.142 -1.199,-0.279 -1.747,-0.406 -1.109,-0.221 -2.064,-0.359 -2.886,-0.477 -1.589,-0.141 -2.497,-0.221 -2.497,-0.221 -0.188,-0.017 -0.354,0.121 -0.371,0.309 -0.016,0.183 0.116,0.345 0.296,0.37 0,0 0.905,0.116 2.488,0.321 0.75,0.139 1.71,0.317 2.77,0.573 0.528,0.145 1.091,0.3 1.683,0.463 0.583,0.194 1.195,0.399 1.834,0.612 1.267,0.457 2.613,1.027 3.988,1.726 1.38,0.692 2.767,1.545 4.174,2.466 1.378,0.967 2.782,2 4.1,3.184 1.343,1.152 2.61,2.437 3.833,3.755 4.913,5.296 8.61,11.606 11.013,16.466 2.406,4.883 3.561,8.329 3.561,8.329 0.06,0.18 0.254,0.276 0.433,0.216 0.174,-0.059 0.27,-0.244 0.219,-0.418 z" /></g><g
                   transform="translate(188.6678,305.3804)"
                   id="g666"
                   style="fill:#000000"><path
                     id="path668"
                     style="fill:#000000;fill-opacity:1;fill-rule:nonzero;stroke:none"
                     d="m 0,0 c 0,0 0.205,-0.849 0.562,-2.336 0.175,-0.701 0.43,-1.633 0.74,-2.63 0.301,-1.01 0.685,-2.14 1.091,-3.377 0.44,-1.225 0.917,-2.552 1.489,-3.928 0.267,-0.695 0.582,-1.394 0.902,-2.107 0.316,-0.715 0.622,-1.453 0.99,-2.177 0.684,-1.474 1.478,-2.951 2.301,-4.442 0.874,-1.46 1.739,-2.961 2.741,-4.369 0.931,-1.458 2.023,-2.797 3.055,-4.148 0.56,-0.638 1.116,-1.271 1.666,-1.896 0.535,-0.639 1.113,-1.224 1.702,-1.778 0.579,-0.564 1.148,-1.119 1.705,-1.663 0.596,-0.5 1.178,-0.99 1.744,-1.467 1.1,-1.002 2.307,-1.726 3.35,-2.492 0.518,-0.392 1.051,-0.707 1.566,-0.996 0.51,-0.298 0.993,-0.58 1.447,-0.846 0.452,-0.251 0.887,-0.546 1.269,-0.714 0.419,-0.193 0.803,-0.369 1.15,-0.529 1.389,-0.639 2.183,-1.004 2.183,-1.004 0.172,-0.078 0.249,-0.28 0.171,-0.452 -0.075,-0.168 -0.272,-0.243 -0.441,-0.175 0,0 -0.808,0.331 -2.222,0.912 -0.353,0.145 -0.745,0.306 -1.171,0.481 -0.47,0.187 -0.872,0.444 -1.361,0.69 -0.476,0.252 -0.982,0.52 -1.515,0.802 -0.543,0.27 -1.092,0.59 -1.633,0.974 -1.086,0.759 -2.342,1.477 -3.493,2.474 -0.593,0.477 -1.202,0.965 -1.825,1.465 -0.592,0.534 -1.174,1.106 -1.773,1.679 -0.609,0.565 -1.206,1.159 -1.761,1.808 -0.567,0.637 -1.142,1.282 -1.721,1.931 -1.067,1.373 -2.195,2.738 -3.158,4.219 -1.033,1.436 -1.89,2.983 -2.771,4.477 -0.828,1.527 -1.623,3.037 -2.306,4.542 -0.707,1.492 -1.318,2.968 -1.849,4.384 -0.547,1.411 -0.996,2.769 -1.41,4.02 -0.39,1.261 -0.733,2.419 -0.99,3.465 -0.275,1.05 -0.472,1.92 -0.634,2.709 -0.292,1.5 -0.459,2.357 -0.459,2.357 -0.036,0.185 0.085,0.365 0.27,0.401 0.18,0.034 0.354,-0.079 0.397,-0.255 z" /></g><g
                   transform="translate(163.3616,216.0556)"
                   id="g670"><path
                     id="path672"
                     style="fill:#000000;fill-opacity:1;fill-rule:nonzero;stroke:none"
                     d="M 0,0 C 0,0 0.063,-0.096 0.181,-0.278 0.24,-0.369 0.313,-0.48 0.398,-0.613 l 0.008,-0.012 0.002,-0.004 c 0.083,-0.134 -0.109,0.182 -0.089,0.148 l 0.006,-0.006 0.021,-0.022 0.043,-0.044 0.09,-0.094 c 0.06,-0.066 0.125,-0.136 0.193,-0.209 0.136,-0.148 0.286,-0.313 0.451,-0.49 0.063,-0.074 0.337,-0.318 0.518,-0.488 0.426,-0.381 0.83,-0.72 1.364,-1.131 1.037,-0.797 2.311,-1.641 3.748,-2.409 0.724,-0.374 1.486,-0.724 2.273,-1.054 0.791,-0.309 1.603,-0.617 2.438,-0.84 0.822,-0.272 1.676,-0.42 2.508,-0.602 0.844,-0.107 1.669,-0.282 2.486,-0.305 0.812,-0.078 1.601,-0.094 2.353,-0.084 0.752,-0.029 1.461,0.07 2.122,0.096 0.662,0.021 1.259,0.141 1.799,0.195 0.268,0.034 0.521,0.066 0.754,0.095 0.166,0.004 0.436,0.08 0.617,0.108 0.79,0.154 1.245,0.227 1.245,0.227 l 0.014,0.001 c 0.374,0.061 0.726,-0.194 0.786,-0.568 0.051,-0.324 -0.131,-0.628 -0.42,-0.746 0,0 -0.427,-0.171 -1.181,-0.449 -0.207,-0.067 -0.357,-0.144 -0.667,-0.222 -0.24,-0.067 -0.5,-0.139 -0.777,-0.216 -0.559,-0.142 -1.179,-0.369 -1.889,-0.459 -0.705,-0.105 -1.464,-0.298 -2.288,-0.324 -0.821,-0.066 -1.69,-0.137 -2.593,-0.083 -0.904,-0.007 -1.831,0.123 -2.776,0.225 -0.932,0.185 -1.888,0.342 -2.812,0.63 -0.937,0.242 -1.833,0.612 -2.712,0.971 -0.877,0.369 -1.7,0.812 -2.482,1.264 -1.553,0.923 -2.879,1.976 -3.913,2.981 -0.514,0.475 -1.003,1.03 -1.343,1.457 -0.19,0.248 -0.301,0.36 -0.522,0.679 -0.134,0.2 -0.258,0.385 -0.37,0.552 -0.056,0.083 -0.109,0.161 -0.159,0.237 l -0.07,0.108 c -0.053,0.089 -0.104,0.174 -0.153,0.254 -0.056,0.145 -0.104,0.269 -0.143,0.37 -0.078,0.199 -0.119,0.307 -0.119,0.307 -0.136,0.351 0.038,0.746 0.389,0.882 0.308,0.12 0.647,0.001 0.82,-0.263 z" /></g><g
                   transform="translate(118.5877,141.6582)"
                   id="g674"><path
                     id="path676"
                     style="fill:#000000;fill-opacity:1;fill-rule:nonzero;stroke:none"
                     d="m 0,0 c 0,0 4.785,-1.581 12.132,-3.447 1.829,-0.487 3.836,-0.919 5.945,-1.429 2.121,-0.457 4.342,-1.011 6.667,-1.461 2.319,-0.476 4.717,-0.959 7.169,-1.376 2.442,-0.463 4.94,-0.844 7.438,-1.221 2.49,-0.427 5.008,-0.657 7.476,-0.953 2.467,-0.303 4.912,-0.453 7.267,-0.684 1.178,-0.119 2.34,-0.195 3.476,-0.258 1.137,-0.082 2.249,-0.163 3.33,-0.24 2.164,-0.184 4.215,-0.255 6.108,-0.325 1.892,-0.061 3.627,-0.168 5.167,-0.174 1.539,-0.014 2.881,-0.025 3.986,-0.036 2.212,-0.027 3.475,-0.043 3.475,-0.043 h 0.015 c 0.211,-0.003 0.38,-0.176 0.377,-0.387 -0.003,-0.207 -0.169,-0.372 -0.373,-0.377 0,0 -1.268,-0.032 -3.486,-0.087 -1.11,-0.022 -2.458,-0.049 -4.004,-0.08 -1.546,-0.024 -3.29,0.05 -5.192,0.077 -1.903,0.032 -3.965,0.065 -6.142,0.208 -2.177,0.132 -4.48,0.184 -6.845,0.461 -2.365,0.252 -4.819,0.422 -7.294,0.769 -2.475,0.341 -4.998,0.612 -7.506,0.997 -2.512,0.357 -5.023,0.717 -7.481,1.163 -2.467,0.397 -4.879,0.872 -7.213,1.336 -2.338,0.441 -4.575,0.977 -6.708,1.432 -2.114,0.542 -4.123,1.005 -5.957,1.52 -3.681,0.97 -6.719,1.896 -8.832,2.584 -2.11,0.696 -3.307,1.142 -3.307,1.142 -0.244,0.09 -0.368,0.363 -0.277,0.607 C -0.5,-0.045 -0.24,0.078 0,0" /></g><g
                   transform="translate(127.8094,193.4043)"
                   id="g678"><path
                     id="path680"
                     style="fill:#3f3e3e;fill-opacity:1;fill-rule:nonzero;stroke:none"
                     d="m 0,0 c 0,0 0.545,0.237 1.499,0.655 0.959,0.402 2.303,1.04 3.906,1.823 1.603,0.777 3.469,1.702 5.405,2.809 0.98,0.533 1.937,1.177 2.94,1.78 0.974,0.648 1.962,1.312 2.933,1.997 0.943,0.722 1.944,1.374 2.827,2.145 0.89,0.761 1.809,1.461 2.59,2.261 0.785,0.791 1.575,1.526 2.22,2.32 0.652,0.785 1.341,1.467 1.845,2.202 0.544,0.704 1.043,1.35 1.485,1.921 0.416,0.591 0.732,1.137 1.016,1.571 0.573,0.869 0.9,1.365 0.9,1.365 l 0.009,0.012 c 0.049,0.074 0.148,0.094 0.221,0.046 0.07,-0.047 0.092,-0.14 0.05,-0.213 0,0 -0.301,-0.518 -0.827,-1.427 -0.278,-0.446 -0.587,-1.006 -0.996,-1.613 -0.435,-0.59 -0.925,-1.254 -1.461,-1.978 -0.518,-0.74 -1.245,-1.403 -1.923,-2.179 -0.673,-0.783 -1.493,-1.5 -2.307,-2.274 C 21.549,12.416 20.646,11.686 19.76,10.907 18.886,10.111 17.904,9.423 16.971,8.67 16.01,7.954 15.012,7.288 14.037,6.623 13.032,6.007 12.073,5.351 11.09,4.806 9.165,3.645 7.304,2.672 5.682,1.895 4.875,1.5 4.104,1.201 3.434,0.911 2.754,0.644 2.167,0.399 1.673,0.221 0.687,-0.14 0.107,-0.302 0.107,-0.302 0.022,-0.325 -0.066,-0.274 -0.09,-0.19 -0.111,-0.113 -0.072,-0.032 0,0" /></g><g
                   transform="translate(190.5105,207.4111)"
                   id="g682"><path
                     id="path684"
                     style="fill:#3f3e3e;fill-opacity:1;fill-rule:nonzero;stroke:none"
                     d="m 0,0 c 0,0 0.12,-0.077 0.344,-0.223 0.211,-0.17 0.52,-0.429 0.906,-0.775 0.386,-0.347 0.737,-0.844 1.205,-1.376 0.484,-0.522 0.909,-1.19 1.351,-1.934 0.419,-0.754 1,-1.507 1.358,-2.43 0.4,-0.903 0.823,-1.854 1.26,-2.836 0.494,-0.961 0.753,-2.048 1.138,-3.106 0.357,-1.068 0.718,-2.153 1.081,-3.24 0.331,-1.094 0.529,-2.223 0.801,-3.313 0.258,-1.094 0.512,-2.171 0.758,-3.214 0.135,-0.519 0.268,-1.029 0.398,-1.527 0.094,-0.505 0.187,-1.002 0.276,-1.483 0.173,-0.965 0.336,-1.878 0.487,-2.722 0.26,-1.692 0.477,-3.102 0.629,-4.091 0.133,-0.99 0.209,-1.554 0.209,-1.554 0.011,-0.088 -0.05,-0.167 -0.137,-0.179 -0.084,-0.012 -0.161,0.044 -0.178,0.126 l -0.002,0.012 c 0,0 -0.11,0.559 -0.302,1.538 -0.174,0.98 -0.421,2.382 -0.718,4.062 -0.128,0.844 -0.267,1.758 -0.414,2.726 -0.075,0.483 -0.151,0.98 -0.229,1.487 -0.115,0.501 -0.231,1.012 -0.35,1.531 -0.262,1.036 -0.533,2.104 -0.808,3.189 -0.293,1.08 -0.53,2.196 -0.888,3.273 -0.372,1.073 -0.744,2.145 -1.111,3.202 -0.391,1.045 -0.657,2.123 -1.154,3.067 -0.452,0.96 -0.891,1.887 -1.306,2.767 -0.366,0.907 -0.931,1.637 -1.345,2.374 -0.441,0.72 -0.793,1.418 -1.243,1.933 -0.424,0.533 -0.753,1.05 -1.095,1.387 -0.337,0.348 -0.601,0.622 -0.782,0.808 -0.208,0.168 -0.32,0.258 -0.32,0.258 l -0.006,0.005 c -0.068,0.056 -0.079,0.155 -0.024,0.224 C -0.159,0.03 -0.067,0.043 0,0" /></g><g
                   transform="translate(143.2723,325.3213)"
                   id="g710"
                   style="fill:#000000"><path
                     id="path712"
                     style="fill:#000000;fill-opacity:1;fill-rule:nonzero;stroke:none"
                     d="m 0,0 c 0,0 -0.004,-0.07 -0.01,-0.201 -10e-4,-0.129 -0.002,-0.317 -0.002,-0.556 0.009,-0.486 0.058,-1.184 0.207,-2.002 0.052,-0.412 0.191,-0.844 0.299,-1.304 0.169,-0.443 0.29,-0.929 0.511,-1.395 0.183,-0.482 0.436,-0.949 0.709,-1.415 0.247,-0.481 0.624,-0.89 0.918,-1.352 0.361,-0.412 0.705,-0.844 1.087,-1.229 0.409,-0.358 0.785,-0.742 1.198,-1.059 0.427,-0.299 0.823,-0.612 1.208,-0.901 0.415,-0.248 0.806,-0.482 1.167,-0.699 0.36,-0.221 0.695,-0.42 1.012,-0.557 0.311,-0.153 0.583,-0.285 0.806,-0.394 0.446,-0.227 0.701,-0.356 0.701,-0.356 l 0.03,-0.016 c 0.167,-0.085 0.234,-0.29 0.15,-0.458 -0.078,-0.152 -0.255,-0.221 -0.413,-0.169 0,0 -0.279,0.094 -0.766,0.257 -0.475,0.199 -1.212,0.353 -1.993,0.788 -0.399,0.203 -0.831,0.422 -1.287,0.654 -0.429,0.281 -0.892,0.569 -1.354,0.892 -0.453,0.333 -0.877,0.742 -1.331,1.125 -0.43,0.411 -0.823,0.878 -1.23,1.326 -0.339,0.506 -0.724,0.983 -0.993,1.52 -0.291,0.526 -0.557,1.051 -0.749,1.591 -0.238,0.519 -0.343,1.066 -0.483,1.566 -0.084,0.515 -0.196,0.994 -0.22,1.448 -0.176,1.801 0.154,3.006 0.154,3.006 0.049,0.182 0.238,0.29 0.422,0.24 C -0.094,0.307 0.007,0.157 0,0" /></g><g
                   transform="translate(154.9358,328.1782)"
                   id="g714"
                   style="fill:#000000"><path
                     id="path716"
                     style="fill:#000000;fill-opacity:1;fill-rule:nonzero;stroke:none"
                     d="m 0,0 c 0,0 0.25,-1.004 0.234,-2.518 -0.025,-0.757 -0.06,-1.652 -0.273,-2.589 -0.09,-0.47 -0.243,-0.945 -0.381,-1.432 -0.196,-0.467 -0.32,-0.974 -0.585,-1.424 -0.237,-0.462 -0.484,-0.916 -0.794,-1.327 -0.272,-0.434 -0.603,-0.813 -0.937,-1.169 -0.304,-0.384 -0.69,-0.661 -1.035,-0.942 -0.334,-0.295 -0.686,-0.522 -1.024,-0.71 -0.332,-0.193 -0.628,-0.389 -0.917,-0.504 -0.289,-0.114 -0.541,-0.214 -0.748,-0.296 -0.415,-0.154 -0.651,-0.242 -0.651,-0.242 -0.176,-0.066 -0.372,0.024 -0.437,0.2 -0.059,0.157 0.006,0.329 0.146,0.411 l 0.04,0.024 c 0,0 0.206,0.122 0.567,0.333 0.18,0.102 0.399,0.224 0.65,0.365 0.25,0.14 0.49,0.364 0.781,0.557 0.292,0.194 0.591,0.424 0.866,0.714 0.291,0.273 0.597,0.556 0.862,0.898 0.287,0.323 0.572,0.666 0.802,1.059 0.265,0.368 0.473,0.781 0.672,1.197 0.23,0.4 0.365,0.851 0.552,1.267 0.136,0.437 0.289,0.863 0.384,1.292 0.204,0.854 0.359,1.669 0.429,2.377 0.155,1.424 0.12,2.371 0.12,2.371 -0.008,0.19 0.14,0.349 0.329,0.356 0.166,0.006 0.308,-0.105 0.346,-0.26 z" /></g><g
                   transform="translate(173.3675,264.5264)"
                   id="g718"><path
                     id="path720"
                     style="fill:#000000;fill-opacity:1;fill-rule:nonzero;stroke:none"
                     d="m 0,0 c -0.172,-2.014 -1.669,-3.502 -3.343,-3.324 -1.672,0.178 -2.888,1.96 -2.713,3.972 0.174,2.014 1.67,3.501 3.343,3.322 C -1.042,3.793 0.172,2.016 0,0" /></g><g
                   transform="translate(169.8328,267.9019)"
                   id="g722"><path
                     id="path724"
                     style="fill:#000000;fill-opacity:1;fill-rule:nonzero;stroke:none"
                     d="m 0,0 c 0,0 -1.473,-0.053 -2.665,0.367 -2.13,0.746 -2.645,1.692 -3.03,1.33 -0.378,-0.36 1.505,-4.115 4.888,-4.5 0,0 1.108,2.057 0.807,2.803" /></g><g
                   transform="translate(197.2137,262.7695)"
                   id="g726"><path
                     id="path728"
                     style="fill:#000000;fill-opacity:1;fill-rule:nonzero;stroke:none"
                     d="M 0,0 C 0.171,-2.012 1.668,-3.501 3.342,-3.323 5.016,-3.144 6.231,-1.362 6.057,0.65 5.881,2.664 4.386,4.152 2.714,3.973 1.042,3.794 -0.172,2.017 0,0" /></g><g
                   transform="translate(200.7488,266.1465)"
                   id="g730"><path
                     id="path732"
                     style="fill:#000000;fill-opacity:1;fill-rule:nonzero;stroke:none"
                     d="m 0,0 c 0,0 1.473,-0.053 2.664,0.367 2.132,0.746 2.647,1.691 3.03,1.33 0.379,-0.359 -1.505,-4.115 -4.886,-4.5 0,0 -1.109,2.057 -0.808,2.803" /></g><g
                   id="g734"
                   style="fill:#552200"><g
                     id="g736"
                     style="fill:#552200" /><g
                     id="g748"
                     style="fill:#552200"><g
                       style="opacity:0.30000299;fill:#552200"
                       id="g746"
                       clip-path="url(#clipPath740)"><g
                         id="g744"
                         transform="translate(192.2288,264.3999)"
                         style="fill:#552200"><path
                           id="path742"
                           style="fill:#552200;fill-opacity:1;fill-rule:nonzero;stroke:none"
                           d="m 0,0 c 0.056,1.736 -3.238,4.161 -6.76,4.052 -3.523,-0.115 -5.459,-1.722 -5.544,-3.91 -0.071,-1.824 1.679,-4.618 6.361,-4.892 C -1.188,-5.025 -0.049,-1.423 0,0" /></g></g></g></g><g
                   transform="translate(183.1341,260.623)"
                   id="g750"><path
                     id="path752"
                     style="fill:#492d20;fill-opacity:1;fill-rule:nonzero;stroke:none"
                     d="M 0,0 C 0.367,0.153 -2.179,2.556 -2.84,2.148 -3.379,1.812 -1.301,-0.539 0,0" /></g><g
                   transform="translate(188.742,268.748)"
                   id="g754"><path
                     id="path756"
                     style="fill:#763f2c;fill-opacity:1;fill-rule:nonzero;stroke:none"
                     d="M 0,0 C 0,0 0.821,-0.219 1.849,-0.971 2.347,-1.366 2.914,-1.898 3.322,-2.665 3.521,-3.044 3.671,-3.48 3.737,-3.938 3.777,-4.17 3.8,-4.401 3.787,-4.634 L 3.778,-5.011 3.747,-5.301 C 3.621,-6.257 3.208,-7.035 2.71,-7.716 2.209,-8.394 1.545,-8.869 0.941,-9.148 0.337,-9.444 -0.222,-9.501 -0.587,-9.549 c -0.375,-0.016 -0.585,-0.004 -0.585,-0.004 -0.238,0.017 -0.418,0.22 -0.403,0.459 0.012,0.181 0.135,0.328 0.297,0.38 l 0.025,0.008 c 0,0 0.171,0.054 0.466,0.151 0.287,0.108 0.68,0.286 1.092,0.554 0.413,0.274 0.807,0.694 1.164,1.185 0.351,0.491 0.577,1.159 0.717,1.728 l 0.046,0.286 0.006,0.201 c 0.016,0.15 0.009,0.299 -0.014,0.449 -0.02,0.298 -0.13,0.575 -0.226,0.851 -0.211,0.552 -0.594,1.028 -0.962,1.396 -0.363,0.38 -0.719,0.663 -0.977,0.845 -0.262,0.194 -0.402,0.281 -0.402,0.281 -0.201,0.126 -0.262,0.392 -0.138,0.592 C -0.378,-0.023 -0.177,0.045 0,0" /></g><g
                   transform="translate(143.9788,255.8071)"
                   id="g758"><path
                     id="path760"
                     style="fill:#763f2c;fill-opacity:1;fill-rule:nonzero;stroke:none"
                     d="m 0,0 c 0,0 0.003,0.041 0.007,0.116 0.016,0.086 0.027,0.224 0.073,0.382 0.058,0.149 0.093,0.347 0.208,0.546 0.107,0.204 0.223,0.444 0.446,0.643 0.189,0.234 0.454,0.409 0.76,0.571 0.29,0.214 0.646,0.218 1,0.307 0.358,0.07 0.7,-0.007 1.065,-0.012 L 3.831,2.535 4.109,2.47 C 4.266,2.428 4.409,2.414 4.61,2.316 5.372,2.007 5.925,1.53 6.362,0.997 6.79,0.464 7.036,-0.108 7.216,-0.59 7.392,-1.078 7.452,-1.502 7.5,-1.795 7.539,-2.091 7.54,-2.273 7.539,-2.273 7.54,-2.463 7.385,-2.618 7.195,-2.618 c -0.149,0 -0.275,0.095 -0.323,0.226 l -0.009,0.023 c 0,0 -0.051,0.14 -0.139,0.384 -0.088,0.25 -0.246,0.597 -0.448,0.993 C 6.077,-0.594 5.787,-0.168 5.438,0.217 5.107,0.602 4.626,0.941 4.193,1.096 4.107,1.143 3.933,1.19 3.782,1.233 3.726,1.25 3.583,1.288 3.599,1.288 L 3.398,1.305 C 3.137,1.313 2.854,1.399 2.623,1.355 2.405,1.286 2.137,1.338 1.964,1.224 1.768,1.152 1.58,1.076 1.448,0.94 1.288,0.838 1.184,0.692 1.073,0.573 0.957,0.457 0.905,0.315 0.833,0.217 0.729,0.026 0.667,-0.121 0.67,-0.129 L 0.666,-0.141 C 0.6,-0.319 0.402,-0.409 0.224,-0.343 0.079,-0.289 -0.009,-0.147 0,0" /></g><g
                   transform="translate(221.1038,246.6484)"
                   id="g762"><path
                     id="path764"
                     style="fill:#763f2c;fill-opacity:1;fill-rule:nonzero;stroke:none"
                     d="m 0,0 c 0.003,0.01 -0.058,0.156 -0.163,0.347 -0.071,0.098 -0.123,0.239 -0.238,0.355 -0.112,0.12 -0.216,0.267 -0.376,0.367 -0.132,0.137 -0.32,0.212 -0.517,0.285 -0.172,0.114 -0.44,0.061 -0.659,0.13 C -2.184,1.529 -2.466,1.442 -2.728,1.435 L -2.929,1.417 C -2.913,1.418 -3.056,1.38 -3.112,1.362 -3.262,1.319 -3.437,1.272 -3.522,1.226 -3.956,1.071 -4.437,0.73 -4.768,0.346 -5.117,-0.04 -5.407,-0.465 -5.606,-0.862 -5.807,-1.259 -5.965,-1.607 -6.052,-1.856 -6.141,-2.101 -6.191,-2.24 -6.191,-2.24 L -6.2,-2.262 c -0.065,-0.179 -0.262,-0.272 -0.441,-0.207 -0.14,0.051 -0.227,0.184 -0.227,0.324 0,0 0,0.182 0.039,0.477 0.047,0.294 0.108,0.719 0.284,1.207 0.18,0.482 0.426,1.054 0.852,1.587 0.438,0.532 0.991,1.01 1.753,1.319 0.202,0.098 0.344,0.113 0.501,0.155 l 0.278,0.065 0.272,0.018 c 0.365,0.005 0.707,0.082 1.065,0.011 0.355,-0.089 0.71,-0.092 1.001,-0.306 C -0.517,2.227 -0.252,2.051 -0.064,1.816 0.16,1.618 0.276,1.378 0.383,1.174 0.499,0.975 0.533,0.776 0.591,0.628 0.636,0.47 0.647,0.332 0.664,0.246 0.668,0.17 0.67,0.13 0.67,0.13 0.682,-0.061 0.537,-0.224 0.347,-0.234 0.192,-0.243 0.056,-0.148 0.004,-0.011 Z" /></g><g
                   transform="translate(183.5613,242.9814)"
                   id="g766"><path
                     id="path768"
                     style="fill:#ae4857;fill-opacity:1;fill-rule:nonzero;stroke:none"
                     d="M 0,0 C 7.652,-1.876 9.544,-6.777 9.544,-6.777 L 9.609,-6.876 C 6.616,-8.736 2.605,-9.803 -2.621,-9.025 -8.752,-8.12 -12.586,-4.69 -14.737,-1.084 -13.492,-0.696 -6.051,1.488 0,0" /></g><g
                   transform="translate(200.3689,248.498)"
                   id="g770"><path
                     id="path772"
                     style="fill:#000000;fill-opacity:1;fill-rule:nonzero;stroke:none"
                     d="m 0,0 c 0.89,-1.294 -0.97,-8.541 -7.198,-12.393 l -0.065,0.099 c 0,0 -1.893,4.901 -9.545,6.777 -6.051,1.489 -13.492,-0.696 -14.737,-1.084 -2.62,4.385 -2.75,9.044 -1.44,9.869 C -26.821,7.151 -2.75,4.012 0,0" /></g><g
                   transform="translate(175.4954,283.8643)"
                   id="g774"
                   style="fill:#000000"><path
                     id="path776"
                     style="fill:#000000;fill-opacity:1;fill-rule:nonzero;stroke:none"
                     d="m 0,0 c -0.446,1.676 -3.762,3.197 -7.524,1.129 -3.763,-2.07 -5.079,-5.456 -4.328,-6.584 0.754,-1.129 2.26,0.751 5.644,2.068 C -2.803,-2.062 0.752,-2.822 0,0" /></g><g
                   transform="translate(201.9632,281.8862)"
                   id="g778"
                   style="fill:#000000"><path
                     id="path780"
                     style="fill:#000000;fill-opacity:1;fill-rule:nonzero;stroke:none"
                     d="M 0,0 C 0.737,1.571 4.271,2.479 7.605,-0.225 10.94,-2.929 11.634,-6.496 10.694,-7.474 9.752,-8.451 8.605,-6.332 5.507,-4.436 2.392,-2.527 -1.243,-2.644 0,0" /></g><g
                   transform="translate(96.9549,347.4609)"
                   id="g782"><path
                     id="path784"
                     style="fill:#763f2c;fill-opacity:1;fill-rule:nonzero;stroke:none"
                     d="M 0,0 C 0.011,-0.001 0.07,0.13 0.335,0.361 0.591,0.607 0.954,0.86 1.433,1.149 1.679,1.264 1.954,1.374 2.25,1.485 2.542,1.62 2.863,1.687 3.201,1.732 3.538,1.782 3.889,1.858 4.245,1.875 4.598,1.855 4.957,1.833 5.315,1.813 5.671,1.772 6.039,1.775 6.365,1.657 6.695,1.555 7.021,1.454 7.336,1.357 7.648,1.256 7.953,1.161 8.223,1.038 8.479,0.89 8.721,0.75 8.945,0.621 c 0.882,-0.539 1.418,-0.942 1.418,-0.942 0.227,-0.169 0.274,-0.491 0.103,-0.718 -0.124,-0.166 -0.33,-0.235 -0.521,-0.194 l -0.081,0.019 c 0,0 -0.64,0.141 -1.524,0.418 -0.218,0.074 -0.454,0.154 -0.703,0.24 C 7.387,-0.483 7.11,-0.465 6.84,-0.397 6.567,-0.339 6.287,-0.277 6,-0.215 5.719,-0.116 5.428,-0.142 5.14,-0.117 4.852,-0.091 4.564,-0.065 4.281,-0.038 4.002,-0.056 3.729,-0.074 3.463,-0.091 3.195,-0.101 2.934,-0.108 2.701,-0.174 2.464,-0.227 2.233,-0.262 2.017,-0.298 1.625,-0.441 1.239,-0.508 1.046,-0.614 0.828,-0.684 0.658,-0.786 0.664,-0.781 0.418,-0.924 0.104,-0.842 -0.04,-0.597 c -0.094,0.16 -0.092,0.349 -0.011,0.502 z" /></g><g
                   transform="translate(154.8123,109.6367)"
                   id="g786"><path
                     id="path788"
                     style="fill:#876038;fill-opacity:1;fill-rule:nonzero;stroke:none"
                     d="m 0,0 c 0,0 -0.216,-2.146 -0.592,-5.901 -0.379,-3.755 -0.888,-9.123 -1.654,-15.549 -0.736,-6.429 -1.594,-13.93 -2.514,-21.967 -0.433,-4.021 -1.017,-8.16 -1.54,-12.374 -0.543,-4.212 -1.094,-8.49 -1.645,-12.771 -0.573,-4.274 -1.146,-8.55 -1.71,-12.759 -0.593,-4.205 -1.057,-8.361 -1.72,-12.352 -1.257,-7.992 -2.43,-15.45 -3.436,-21.844 -2.07,-12.776 -3.45,-21.293 -3.45,-21.293 -0.03,-0.186 -0.205,-0.312 -0.391,-0.282 -0.184,0.03 -0.31,0.202 -0.283,0.386 l 0.002,0.013 c 0,0 1.25,8.533 3.126,21.334 0.968,6.394 2.097,13.853 3.306,21.846 0.64,3.992 1.08,8.15 1.647,12.355 0.539,4.21 1.087,8.487 1.635,12.765 0.57,4.274 1.14,8.548 1.701,12.756 0.548,4.209 1.158,8.343 1.616,12.36 0.968,8.027 1.873,15.518 2.647,21.94 1.546,12.847 2.576,21.41 2.576,21.41 0.022,0.188 0.191,0.322 0.379,0.3 C -0.116,0.352 0.018,0.185 0,0" /></g><g
                   transform="translate(162.6238,92.6172)"
                   id="g790"><path
                     id="path792"
                     style="fill:#100000;fill-opacity:1;fill-rule:nonzero;stroke:none"
                     d="m 0,0 c 0,1.801 -1.46,3.263 -3.261,3.263 -1.801,0 -3.26,-1.462 -3.26,-3.263 0,-1.802 1.459,-3.261 3.26,-3.261 C -1.46,-3.261 0,-1.802 0,0" /></g><g
                   transform="translate(161.2688,68.9023)"
                   id="g794"><path
                     id="path796"
                     style="fill:#100000;fill-opacity:1;fill-rule:nonzero;stroke:none"
                     d="m 0,0 c 0,1.804 -1.459,3.264 -3.26,3.264 -1.801,0 -3.261,-1.46 -3.261,-3.264 0,-1.801 1.46,-3.258 3.261,-3.258 C -1.459,-3.258 0,-1.801 0,0" /></g><g
                   transform="translate(230.6048,321.8413)"
                   id="g798"
                   style="fill:#000000"><path
                     id="path800"
                     style="fill:#000000;fill-opacity:1;fill-rule:nonzero;stroke:none"
                     d="M 0,0 C 0,0 0.024,-0.069 0.059,-0.243 0.1,-0.416 0.133,-0.647 0.159,-0.953 0.172,-1.256 0.183,-1.626 0.136,-2.048 0.098,-2.469 0.014,-2.95 -0.162,-3.441 -0.313,-3.948 -0.57,-4.453 -0.865,-4.981 -1.204,-5.467 -1.539,-6.028 -2.03,-6.452 -2.265,-6.676 -2.493,-6.918 -2.745,-7.133 -3.011,-7.33 -3.281,-7.529 -3.552,-7.729 -4.08,-8.163 -4.708,-8.423 -5.295,-8.765 c -0.604,-0.308 -1.247,-0.508 -1.857,-0.762 -0.614,-0.248 -1.249,-0.37 -1.846,-0.553 -0.597,-0.192 -1.191,-0.287 -1.752,-0.373 -0.561,-0.092 -1.09,-0.179 -1.579,-0.26 -0.982,-0.112 -1.805,-0.136 -2.377,-0.185 -0.572,-0.031 -0.9,-0.049 -0.9,-0.049 -0.188,-0.01 -0.349,0.134 -0.359,0.323 -0.01,0.173 0.112,0.323 0.279,0.353 l 0.022,0.005 c 0,-10e-4 1.276,0.236 3.172,0.561 0.929,0.242 2.045,0.411 3.171,0.791 0.563,0.187 1.172,0.315 1.74,0.56 0.563,0.25 1.168,0.449 1.714,0.745 0.527,0.322 1.134,0.534 1.601,0.917 0.248,0.173 0.493,0.346 0.736,0.515 0.227,0.187 0.427,0.395 0.639,0.586 0.219,0.185 0.41,0.388 0.57,0.607 0.168,0.212 0.361,0.402 0.5,0.618 0.279,0.434 0.532,0.852 0.688,1.277 0.175,0.413 0.286,0.817 0.363,1.174 0.082,0.362 0.107,0.683 0.125,0.948 0.016,0.535 -0.017,0.806 -0.023,0.822 -0.057,0.178 0.041,0.37 0.22,0.426 0.174,0.056 0.36,-0.036 0.422,-0.208 z" /></g><g
                   transform="translate(218.8147,325.9585)"
                   id="g802"
                   style="fill:#000000"><path
                     id="path804"
                     style="fill:#000000;fill-opacity:1;fill-rule:nonzero;stroke:none"
                     d="m 0,0 c 0,0 -0.107,-0.909 -0.12,-2.291 0.001,-0.687 0.037,-1.487 0.135,-2.329 0.073,-0.846 0.281,-1.723 0.533,-2.574 0.163,-0.41 0.256,-0.855 0.469,-1.233 0.188,-0.391 0.363,-0.783 0.61,-1.115 0.221,-0.348 0.431,-0.687 0.694,-0.962 0.24,-0.294 0.466,-0.577 0.731,-0.78 0.25,-0.224 0.478,-0.429 0.68,-0.612 0.227,-0.154 0.425,-0.289 0.588,-0.399 0.326,-0.232 0.513,-0.365 0.513,-0.365 l 0.042,-0.03 c 0.153,-0.109 0.189,-0.321 0.08,-0.474 -0.096,-0.135 -0.274,-0.178 -0.42,-0.11 0,0 -0.222,0.104 -0.61,0.284 -0.194,0.096 -0.43,0.212 -0.7,0.345 -0.257,0.157 -0.533,0.36 -0.834,0.583 -0.317,0.207 -0.601,0.498 -0.902,0.808 -0.319,0.295 -0.614,0.643 -0.869,1.042 -0.292,0.376 -0.507,0.811 -0.733,1.251 -0.251,0.43 -0.375,0.917 -0.569,1.379 -0.279,0.956 -0.458,1.935 -0.516,2.852 -0.095,0.917 -0.003,1.773 0.048,2.498 0.16,1.445 0.483,2.381 0.483,2.381 0.061,0.179 0.254,0.277 0.434,0.217 C -0.077,0.313 0.016,0.157 0,0" /></g><g
                   transform="translate(191.5188,199.7949)"
                   id="g806"><path
                     id="path808"
                     style="fill:#000000;fill-opacity:1;fill-rule:nonzero;stroke:none"
                     d="m 0,0 c 0,0 -0.597,-0.052 -1.641,-0.145 -0.523,-0.039 -1.157,-0.086 -1.886,-0.141 -0.724,-0.068 -1.553,-0.091 -2.466,-0.082 -0.911,-0.005 -1.897,-0.01 -2.941,-0.016 -1.037,0.083 -2.13,0.169 -3.261,0.259 -1.133,0.069 -2.288,0.305 -3.469,0.46 -1.185,0.138 -2.357,0.477 -3.544,0.708 -1.182,0.261 -2.34,0.626 -3.501,0.906 -1.133,0.375 -2.269,0.698 -3.326,1.127 -1.056,0.431 -2.071,0.864 -2.989,1.372 -0.942,0.456 -1.779,0.991 -2.567,1.452 -0.754,0.519 -1.46,0.97 -2.038,1.441 -0.599,0.441 -1.081,0.879 -1.48,1.234 -0.785,0.729 -1.196,1.214 -1.196,1.214 -0.136,0.16 -0.117,0.402 0.044,0.539 0.153,0.13 0.378,0.118 0.517,-0.021 l 0.012,-0.012 c 0,0 0.399,-0.4 1.203,-1.041 0.411,-0.31 0.905,-0.688 1.501,-1.088 0.577,-0.422 1.286,-0.823 2.036,-1.283 0.778,-0.42 1.597,-0.913 2.524,-1.325 0.904,-0.457 1.897,-0.851 2.913,-1.284 1.018,-0.428 2.101,-0.802 3.195,-1.196 1.121,-0.312 2.241,-0.707 3.408,-0.919 1.167,-0.205 2.312,-0.517 3.476,-0.63 1.16,-0.129 2.288,-0.351 3.399,-0.405 1.109,-0.074 2.18,-0.147 3.196,-0.216 1.015,-0.025 1.975,-0.048 2.86,-0.069 0.884,-0.036 1.702,-0.037 2.434,0.01 0.73,0.022 1.366,0.043 1.89,0.06 C -0.649,0.93 -0.049,0.94 -0.049,0.94 0.21,0.946 0.425,0.738 0.431,0.478 0.435,0.229 0.244,0.022 0,0" /></g><g
                   transform="translate(128.888,181.2724)"
                   id="g810"><path
                     id="path812"
                     style="fill:#000000;fill-opacity:1;fill-rule:nonzero;stroke:none"
                     d="m 0,0 c 0,0 0.983,-0.492 2.766,-1.257 1.785,-0.754 4.328,-1.855 7.462,-2.97 1.555,-0.588 3.271,-1.139 5.079,-1.736 1.808,-0.598 3.733,-1.18 5.725,-1.766 2.012,-0.52 4.069,-1.15 6.204,-1.602 1.063,-0.246 2.136,-0.492 3.212,-0.74 1.079,-0.233 2.173,-0.415 3.261,-0.626 1.092,-0.192 2.175,-0.438 3.27,-0.582 1.095,-0.141 2.187,-0.279 3.269,-0.416 2.16,-0.319 4.304,-0.445 6.374,-0.619 2.068,-0.204 4.075,-0.238 5.977,-0.332 0.951,-0.041 1.876,-0.08 2.771,-0.118 0.896,0.014 1.761,0.027 2.591,0.039 1.662,0.037 3.187,0.023 4.536,0.094 1.347,0.097 2.522,0.182 3.489,0.251 1.938,0.132 3.045,0.206 3.045,0.206 l 0.025,0.003 c 0.21,0.014 0.392,-0.145 0.407,-0.356 0.014,-0.204 -0.137,-0.382 -0.339,-0.406 0,0 -1.111,-0.122 -3.055,-0.336 -0.973,-0.103 -2.156,-0.228 -3.512,-0.372 -1.359,-0.1 -2.897,-0.12 -4.574,-0.193 -0.839,-0.03 -1.713,-0.062 -2.617,-0.095 -0.905,0.019 -1.84,0.038 -2.802,0.058 -1.922,0.041 -3.955,0.045 -6.041,0.294 -2.089,0.197 -4.253,0.346 -6.427,0.708 -2.182,0.305 -4.394,0.628 -6.592,1.045 -1.099,0.202 -2.205,0.377 -3.296,0.6 -1.087,0.24 -2.17,0.479 -3.245,0.716 -2.16,0.434 -4.236,1.06 -6.271,1.57 -2.014,0.581 -3.961,1.148 -5.788,1.747 -1.816,0.63 -3.537,1.215 -5.098,1.833 -3.139,1.183 -5.705,2.302 -7.476,3.141 -1.77,0.838 -2.76,1.38 -2.76,1.38 l -0.007,0.003 c -0.228,0.124 -0.312,0.41 -0.187,0.64 C -0.502,0.027 -0.225,0.112 0,0" /></g><g
                   transform="translate(125.3973,167.2441)"
                   id="g814"><path
                     id="path816"
                     style="fill:#000000;fill-opacity:1;fill-rule:nonzero;stroke:none"
                     d="m 0,0 c 0,0 1.019,-0.552 2.882,-1.404 0.941,-0.401 2.061,-0.942 3.387,-1.47 1.313,-0.558 2.814,-1.14 4.466,-1.737 1.641,-0.623 3.462,-1.186 5.371,-1.816 1.934,-0.56 3.944,-1.251 6.081,-1.764 1.063,-0.277 2.143,-0.559 3.237,-0.843 1.105,-0.239 2.223,-0.482 3.35,-0.725 2.246,-0.537 4.568,-0.869 6.876,-1.276 2.307,-0.424 4.652,-0.583 6.942,-0.86 2.296,-0.216 4.568,-0.293 6.758,-0.448 1.095,-0.097 2.177,-0.051 3.233,-0.081 1.058,-0.025 2.092,-0.05 3.099,-0.073 2.014,-0.097 3.917,0.044 5.674,0.08 1.756,0.085 3.374,0.05 4.794,0.216 1.425,0.121 2.667,0.227 3.69,0.313 2.048,0.165 3.219,0.261 3.219,0.261 l 0.022,0.001 c 0.211,0.018 0.394,-0.14 0.412,-0.351 0.016,-0.205 -0.134,-0.383 -0.336,-0.409 0,0 -1.172,-0.141 -3.222,-0.389 -1.027,-0.121 -2.274,-0.266 -3.705,-0.433 -1.429,-0.197 -3.057,-0.196 -4.826,-0.316 -1.772,-0.074 -3.689,-0.253 -5.722,-0.198 -2.032,0.022 -4.179,-0.039 -6.392,0.115 -2.211,0.174 -4.502,0.274 -6.815,0.536 -1.155,0.144 -2.319,0.291 -3.488,0.435 -1.168,0.145 -2.346,0.256 -3.509,0.47 -2.332,0.389 -4.679,0.703 -6.95,1.223 -1.139,0.238 -2.27,0.474 -3.387,0.707 -1.106,0.281 -2.199,0.557 -3.274,0.831 -2.161,0.506 -4.198,1.185 -6.153,1.747 -1.921,0.665 -3.75,1.262 -5.401,1.916 -1.661,0.628 -3.169,1.239 -4.489,1.823 -1.332,0.553 -2.462,1.114 -3.396,1.563 -1.854,0.927 -2.887,1.534 -2.887,1.534 -0.225,0.129 -0.303,0.417 -0.173,0.642 C -0.506,0.041 -0.223,0.117 0,0" /></g><g
                   transform="translate(122.1145,154.0547)"
                   id="g818"><path
                     id="path820"
                     style="fill:#000000;fill-opacity:1;fill-rule:nonzero;stroke:none"
                     d="m 0,0 c 0,0 1.116,-0.45 3.116,-1.153 1.007,-0.331 2.213,-0.78 3.619,-1.226 1.401,-0.468 2.992,-0.963 4.736,-1.475 1.737,-0.534 3.646,-1.024 5.653,-1.578 2.021,-0.502 4.132,-1.114 6.354,-1.597 1.106,-0.257 2.232,-0.518 3.372,-0.781 1.145,-0.235 2.305,-0.471 3.475,-0.711 2.332,-0.505 4.726,-0.891 7.116,-1.305 2.384,-0.455 4.802,-0.682 7.166,-1.004 2.368,-0.301 4.713,-0.464 6.973,-0.699 1.129,-0.128 2.246,-0.18 3.337,-0.252 1.091,-0.079 2.158,-0.159 3.197,-0.236 2.076,-0.186 4.046,-0.224 5.864,-0.292 1.817,-0.047 3.483,-0.158 4.961,-0.137 1.479,0 2.767,10e-4 3.828,10e-4 2.124,-0.006 3.338,-0.011 3.338,-0.011 h 0.016 c 0.212,0 0.382,-0.173 0.381,-0.384 0,-0.206 -0.165,-0.373 -0.369,-0.381 0,0 -1.217,-0.043 -3.348,-0.117 -1.066,-0.033 -2.361,-0.073 -3.847,-0.119 -1.485,-0.049 -3.161,0.028 -4.989,0.041 -1.829,0.03 -3.812,0.03 -5.904,0.176 -2.091,0.129 -4.305,0.182 -6.578,0.448 -2.272,0.259 -4.629,0.443 -7.006,0.788 -2.373,0.368 -4.797,0.634 -7.201,1.048 -2.406,0.394 -4.818,0.763 -7.169,1.251 -2.362,0.432 -4.671,0.935 -6.899,1.453 -2.237,0.474 -4.368,1.071 -6.403,1.571 -2.014,0.587 -3.927,1.11 -5.668,1.671 -3.499,1.075 -6.374,2.107 -8.371,2.867 -1.99,0.777 -3.114,1.276 -3.114,1.276 -0.239,0.103 -0.347,0.38 -0.244,0.619 C -0.506,-0.015 -0.234,0.094 0,0" /></g><g
                   transform="translate(135.3641,190.7051)"
                   id="g822"><path
                     id="path824"
                     style="fill:#000000;fill-opacity:1;fill-rule:nonzero;stroke:none"
                     d="m 0,0 c 0,0 0.876,-0.442 2.471,-1.136 1.601,-0.673 3.892,-1.634 6.707,-2.622 1.414,-0.475 2.94,-1.008 4.579,-1.492 1.632,-0.511 3.353,-1.045 5.16,-1.516 1.791,-0.522 3.674,-0.94 5.579,-1.401 1.905,-0.461 3.868,-0.802 5.816,-1.214 1.959,-0.355 3.933,-0.633 5.872,-0.92 1.948,-0.217 3.866,-0.429 5.721,-0.637 1.862,-0.135 3.66,-0.282 5.365,-0.446 1.704,-0.173 3.324,-0.186 4.815,-0.278 1.493,-0.064 2.862,-0.17 4.077,-0.15 1.214,-0.015 2.274,-0.028 3.146,-0.038 1.746,-0.03 2.743,-0.047 2.743,-0.047 h 0.016 c 0.212,-0.004 0.38,-0.178 0.376,-0.389 -0.003,-0.205 -0.168,-0.369 -0.371,-0.375 0,0 -1.001,-0.031 -2.755,-0.083 -0.877,-0.022 -1.942,-0.048 -3.164,-0.078 -1.223,-0.049 -2.601,0.024 -4.105,0.051 -1.504,0.056 -3.137,0.033 -4.858,0.166 -1.721,0.109 -3.538,0.225 -5.411,0.408 -1.867,0.235 -3.797,0.477 -5.758,0.725 -1.949,0.318 -3.93,0.642 -5.912,0.964 -1.967,0.394 -3.951,0.716 -5.877,1.162 -1.927,0.442 -3.828,0.857 -5.642,1.367 -1.826,0.463 -3.571,0.985 -5.221,1.496 -1.647,0.518 -3.181,1.084 -4.601,1.589 -2.824,1.059 -5.143,2.04 -6.733,2.797 -1.586,0.768 -2.476,1.265 -2.476,1.265 -0.227,0.126 -0.309,0.413 -0.183,0.641 C -0.5,0.03 -0.224,0.112 0,0" /></g><g
                   transform="translate(236.9305,184.9365)"
                   id="g826"><path
                     id="path828"
                     style="fill:#000000;fill-opacity:1;fill-rule:nonzero;stroke:none"
                     d="m 0,0 c 0,-0.001 -0.22,-0.45 -0.661,-1.229 -0.425,-0.79 -1.077,-1.885 -1.905,-3.164 -0.402,-0.648 -0.861,-1.336 -1.369,-2.047 -0.512,-0.707 -1.052,-1.454 -1.611,-2.226 -0.593,-0.746 -1.206,-1.517 -1.829,-2.301 -0.641,-0.767 -1.233,-1.596 -1.938,-2.332 -0.689,-0.75 -1.357,-1.515 -2.008,-2.276 -0.634,-0.778 -1.278,-1.525 -1.977,-2.18 -0.679,-0.673 -1.35,-1.307 -1.991,-1.904 -0.643,-0.595 -1.221,-1.188 -1.847,-1.635 -2.433,-1.865 -4.08,-3.052 -4.08,-3.052 -0.171,-0.122 -0.409,-0.084 -0.532,0.086 -0.115,0.16 -0.089,0.377 0.053,0.506 l 0.031,0.028 c 0,0 1.494,1.355 3.773,3.301 0.594,0.458 1.143,1.064 1.753,1.671 0.603,0.614 1.243,1.257 1.92,1.906 0.341,0.324 0.686,0.652 1.037,0.986 0.33,0.352 0.665,0.709 1.001,1.069 0.669,0.728 1.342,1.473 1.993,2.233 0.68,0.74 1.249,1.573 1.865,2.344 0.602,0.783 1.195,1.554 1.769,2.299 0.54,0.77 1.063,1.514 1.559,2.219 0.518,0.69 0.987,1.357 1.398,1.988 0.855,1.241 1.552,2.28 2.026,3.015 0.491,0.721 0.752,1.16 0.752,1.16 0.132,0.224 0.421,0.299 0.645,0.166 0.212,-0.126 0.289,-0.392 0.184,-0.61 z" /></g><g
                   transform="translate(133.8191,239.9297)"
                   id="g830"><path
                     id="path832"
                     style="fill:#000000;fill-opacity:1;fill-rule:nonzero;stroke:none"
                     d="m 0,0 c 0,0 -0.251,-0.435 -0.748,-1.18 -0.481,-0.756 -1.21,-1.8 -2.128,-3.015 -0.448,-0.619 -0.956,-1.271 -1.513,-1.944 -0.562,-0.669 -1.155,-1.373 -1.768,-2.102 -0.646,-0.702 -1.313,-1.426 -1.991,-2.162 -0.694,-0.721 -1.345,-1.504 -2.102,-2.187 -0.741,-0.698 -1.463,-1.413 -2.167,-2.125 -0.688,-0.729 -1.384,-1.428 -2.128,-2.031 -0.726,-0.621 -1.442,-1.206 -2.124,-1.754 -0.684,-0.548 -1.303,-1.097 -1.961,-1.496 -2.561,-1.686 -4.289,-2.75 -4.289,-2.75 -0.179,-0.109 -0.414,-0.054 -0.525,0.124 -0.102,0.168 -0.061,0.384 0.09,0.501 l 0.033,0.025 c 0,0 1.588,1.243 4.001,3.019 0.625,0.415 1.217,0.979 1.869,1.541 0.646,0.569 1.33,1.163 2.054,1.762 0.362,0.298 0.731,0.6 1.104,0.907 0.355,0.328 0.715,0.661 1.077,0.996 0.719,0.676 1.444,1.37 2.149,2.083 0.732,0.686 1.359,1.477 2.029,2.202 0.657,0.736 1.304,1.462 1.93,2.164 0.595,0.729 1.17,1.433 1.716,2.101 0.566,0.651 1.082,1.282 1.537,1.881 0.943,1.175 1.713,2.162 2.239,2.859 0.542,0.685 0.834,1.104 0.834,1.104 0.149,0.214 0.442,0.267 0.656,0.118 C 0.075,0.5 0.134,0.229 0.013,0.021 Z" /></g><g
                   transform="translate(144.7386,223.7529)"
                   id="g834"><path
                     id="path836"
                     style="fill:#000000;fill-opacity:1;fill-rule:nonzero;stroke:none"
                     d="m 0,0 c 0,0 -0.251,-0.434 -0.748,-1.179 -0.48,-0.756 -1.21,-1.8 -2.129,-3.016 -0.447,-0.618 -0.955,-1.27 -1.512,-1.943 -0.563,-0.669 -1.155,-1.375 -1.768,-2.104 -0.646,-0.701 -1.313,-1.426 -1.99,-2.162 -0.696,-0.721 -1.346,-1.503 -2.103,-2.187 -0.74,-0.698 -1.462,-1.412 -2.166,-2.125 -0.689,-0.729 -1.385,-1.429 -2.129,-2.03 -0.726,-0.623 -1.442,-1.207 -2.123,-1.756 -0.685,-0.547 -1.304,-1.097 -1.961,-1.496 -2.561,-1.687 -4.289,-2.75 -4.289,-2.75 -0.18,-0.109 -0.415,-0.054 -0.525,0.124 -0.103,0.168 -0.062,0.384 0.089,0.501 l 0.033,0.025 c 0,0 1.588,1.244 4.001,3.021 0.626,0.413 1.218,0.977 1.869,1.539 0.646,0.569 1.331,1.165 2.054,1.763 0.362,0.297 0.731,0.6 1.105,0.907 0.354,0.329 0.714,0.66 1.076,0.995 0.719,0.677 1.444,1.371 2.15,2.084 0.731,0.687 1.358,1.477 2.028,2.202 0.657,0.737 1.304,1.462 1.93,2.165 0.595,0.729 1.171,1.432 1.716,2.1 0.566,0.651 1.082,1.284 1.537,1.882 0.943,1.176 1.714,2.162 2.239,2.86 0.542,0.685 0.834,1.103 0.834,1.103 0.148,0.214 0.442,0.268 0.656,0.119 C 0.075,0.501 0.133,0.23 0.013,0.021 Z" /></g><g
                   transform="translate(195.5906,189.0137)"
                   id="g838"><path
                     id="path840"
                     style="fill:#000000;fill-opacity:1;fill-rule:nonzero;stroke:none"
                     d="m 0,0 c 0,0 -0.811,-0.111 -2.216,-0.223 -1.408,-0.098 -3.422,-0.155 -5.834,-0.108 -2.412,0.051 -5.227,0.201 -8.216,0.607 -1.498,0.164 -3.035,0.411 -4.596,0.671 -1.565,0.228 -3.129,0.607 -4.706,0.905 -1.566,0.357 -3.133,0.712 -4.674,1.062 -1.528,0.406 -3.032,0.805 -4.488,1.191 -1.443,0.432 -2.815,0.921 -4.121,1.369 -1.315,0.422 -2.507,0.962 -3.633,1.385 -1.115,0.454 -2.158,0.82 -3.04,1.244 -0.889,0.408 -1.664,0.764 -2.301,1.058 -1.271,0.594 -1.997,0.934 -1.997,0.934 -0.192,0.09 -0.274,0.317 -0.185,0.508 0.087,0.184 0.301,0.268 0.487,0.193 l 0.018,-0.006 c 0,0 0.74,-0.295 2.036,-0.811 0.645,-0.26 1.428,-0.578 2.327,-0.942 0.887,-0.393 1.931,-0.724 3.049,-1.141 1.128,-0.385 2.321,-0.885 3.635,-1.262 1.302,-0.411 2.676,-0.844 4.096,-1.291 1.43,-0.416 2.908,-0.847 4.409,-1.282 1.519,-0.372 3.056,-0.785 4.617,-1.088 1.564,-0.275 3.116,-0.628 4.667,-0.834 1.545,-0.236 3.066,-0.469 4.548,-0.616 1.476,-0.191 2.912,-0.287 4.271,-0.401 1.358,-0.115 2.646,-0.191 3.834,-0.246 2.378,-0.11 4.359,-0.062 5.744,-0.045 1.388,0.038 2.165,0.106 2.165,0.106 C 0.155,0.959 0.384,0.767 0.406,0.508 0.427,0.257 0.246,0.034 0,0" /></g><g
                   transform="translate(229.9402,191.7158)"
                   id="g842"><path
                     id="path844"
                     style="fill:#000000;fill-opacity:1;fill-rule:nonzero;stroke:none"
                     d="m 0,0 c 0,0 -0.182,-0.469 -0.539,-1.253 -0.359,-0.785 -0.902,-1.892 -1.639,-3.172 -0.715,-1.292 -1.655,-2.737 -2.721,-4.243 -0.559,-0.734 -1.098,-1.522 -1.714,-2.27 -0.608,-0.753 -1.217,-1.527 -1.88,-2.255 -0.643,-0.745 -1.297,-1.48 -1.959,-2.188 -0.633,-0.735 -1.301,-1.418 -1.967,-2.059 -0.65,-0.661 -1.339,-1.231 -1.999,-1.764 -0.648,-0.548 -1.272,-1.05 -1.883,-1.47 -0.605,-0.425 -1.159,-0.814 -1.652,-1.16 -0.515,-0.31 -0.964,-0.579 -1.335,-0.802 -0.741,-0.437 -1.165,-0.686 -1.165,-0.686 -0.181,-0.108 -0.416,-0.048 -0.523,0.134 -0.1,0.17 -0.053,0.386 0.103,0.501 l 0.023,0.017 c 0,0 0.391,0.286 1.075,0.784 0.342,0.245 0.758,0.544 1.235,0.887 0.457,0.368 0.974,0.783 1.537,1.235 0.576,0.434 1.168,0.946 1.778,1.504 0.62,0.549 1.273,1.123 1.916,1.757 0.66,0.614 1.358,1.235 2.014,1.923 0.33,0.34 0.663,0.684 0.997,1.029 l 0.935,1.102 c 0.634,0.727 1.215,1.499 1.795,2.251 0.587,0.746 1.108,1.524 1.642,2.253 1.003,1.504 1.937,2.91 2.683,4.149 1.518,2.47 2.383,4.18 2.383,4.18 0.117,0.233 0.402,0.325 0.633,0.208 C -0.009,0.481 0.085,0.223 0,0" /></g><g
                   transform="translate(137.7312,232.1601)"
                   id="g846"><path
                     id="path848"
                     style="fill:#000000;fill-opacity:1;fill-rule:nonzero;stroke:none"
                     d="m 0,0 c 0,0 -0.182,-0.469 -0.539,-1.253 -0.359,-0.785 -0.902,-1.892 -1.639,-3.172 -0.715,-1.292 -1.655,-2.737 -2.721,-4.243 -0.559,-0.734 -1.098,-1.522 -1.714,-2.27 -0.608,-0.753 -1.217,-1.527 -1.88,-2.255 -0.644,-0.745 -1.297,-1.479 -1.959,-2.188 -0.633,-0.735 -1.301,-1.418 -1.968,-2.059 -0.649,-0.661 -1.339,-1.231 -1.999,-1.764 -0.647,-0.547 -1.271,-1.05 -1.883,-1.47 -0.605,-0.425 -1.159,-0.814 -1.651,-1.16 -0.516,-0.31 -0.965,-0.579 -1.335,-0.802 -0.741,-0.437 -1.165,-0.686 -1.165,-0.686 -0.182,-0.108 -0.416,-0.048 -0.523,0.134 -0.101,0.17 -0.054,0.386 0.102,0.501 l 0.024,0.017 c 0,0 0.391,0.286 1.074,0.784 0.342,0.245 0.758,0.544 1.235,0.887 0.458,0.368 0.974,0.783 1.537,1.235 0.577,0.434 1.169,0.946 1.779,1.504 0.619,0.549 1.272,1.125 1.916,1.757 0.66,0.615 1.357,1.235 2.014,1.923 0.329,0.34 0.663,0.684 0.997,1.029 l 0.934,1.102 c 0.635,0.727 1.215,1.499 1.795,2.251 0.588,0.746 1.108,1.524 1.642,2.253 1.004,1.504 1.937,2.91 2.684,4.149 1.518,2.47 2.383,4.18 2.383,4.18 0.117,0.233 0.402,0.325 0.633,0.208 C -0.009,0.481 0.085,0.223 0,0" /></g><g
                   transform="translate(223.1883,198.7021)"
                   id="g850"><path
                     id="path852"
                     style="fill:#000000;fill-opacity:1;fill-rule:nonzero;stroke:none"
                     d="m 0,0 c 0,0 -0.668,-1.533 -1.973,-3.637 -1.284,-2.119 -3.285,-4.768 -5.528,-7.202 -0.588,-0.585 -1.126,-1.213 -1.704,-1.79 -0.581,-0.573 -1.108,-1.186 -1.712,-1.682 -0.597,-0.503 -1.153,-1.014 -1.755,-1.409 -0.592,-0.404 -1.12,-0.828 -1.663,-1.143 -0.542,-0.313 -1.04,-0.6 -1.48,-0.854 -0.443,-0.248 -0.864,-0.403 -1.194,-0.557 l -1.048,-0.462 c -0.192,-0.085 -0.417,0.003 -0.502,0.196 -0.079,0.178 -0.009,0.386 0.156,0.481 l 0.033,0.021 c 0,0 0.347,0.203 0.955,0.56 0.3,0.185 0.677,0.379 1.087,0.644 0.403,0.277 0.858,0.588 1.354,0.929 0.504,0.324 0.997,0.759 1.547,1.171 0.554,0.406 1.073,0.922 1.658,1.394 0.592,0.466 1.147,1.016 1.746,1.537 0.588,0.533 1.126,1.139 1.673,1.732 1.056,1.221 2.072,2.48 2.964,3.706 0.896,1.221 1.688,2.394 2.373,3.396 1.352,2.022 2.177,3.403 2.177,3.404 0.133,0.222 0.423,0.295 0.647,0.163 C 0.017,0.475 0.094,0.215 0,0" /></g><g
                   transform="translate(215.0911,202.4609)"
                   id="g854"><path
                     id="path856"
                     style="fill:#000000;fill-opacity:1;fill-rule:nonzero;stroke:none"
                     d="m 0,0 c 0,0 -0.467,-1.036 -1.341,-2.47 -0.435,-0.721 -0.972,-1.545 -1.593,-2.395 -0.629,-0.844 -1.333,-1.721 -2.053,-2.586 -0.73,-0.855 -1.411,-1.758 -2.132,-2.543 -0.731,-0.776 -1.519,-1.399 -2.201,-1.924 -0.338,-0.265 -0.697,-0.453 -0.987,-0.646 -0.288,-0.199 -0.57,-0.331 -0.805,-0.433 -0.462,-0.208 -0.727,-0.327 -0.727,-0.327 -0.191,-0.086 -0.417,-10e-4 -0.503,0.191 -0.077,0.17 -0.018,0.367 0.132,0.47 l 0.043,0.029 c 0,0 0.221,0.152 0.608,0.416 0.195,0.125 0.427,0.285 0.679,0.498 0.25,0.213 0.553,0.415 0.843,0.701 0.618,0.521 1.272,1.204 1.991,1.925 0.722,0.717 1.521,1.474 2.178,2.357 0.692,0.851 1.303,1.769 1.888,2.617 0.585,0.848 1.132,1.64 1.601,2.319 0.937,1.361 1.561,2.267 1.561,2.267 0.148,0.215 0.443,0.268 0.657,0.121 C 0.03,0.455 0.092,0.203 0,0" /></g><g
                   transform="translate(147.552,215.4004)"
                   id="g858"><path
                     id="path860"
                     style="fill:#000000;fill-opacity:1;fill-rule:nonzero;stroke:none"
                     d="m 0,0 c 0,0.001 -0.467,-1.034 -1.341,-2.469 -0.436,-0.72 -0.972,-1.544 -1.593,-2.394 -0.63,-0.845 -1.334,-1.721 -2.054,-2.586 -0.731,-0.854 -1.412,-1.758 -2.133,-2.542 -0.731,-0.777 -1.519,-1.401 -2.2,-1.925 -0.337,-0.264 -0.697,-0.453 -0.988,-0.647 -0.288,-0.198 -0.569,-0.33 -0.804,-0.432 -0.462,-0.209 -0.726,-0.328 -0.726,-0.328 -0.192,-0.086 -0.417,-10e-4 -0.504,0.191 -0.077,0.171 -0.017,0.368 0.132,0.471 l 0.043,0.029 c 0,0 0.22,0.152 0.607,0.416 0.196,0.125 0.427,0.285 0.679,0.498 0.251,0.213 0.554,0.415 0.844,0.701 0.618,0.521 1.272,1.204 1.99,1.925 0.723,0.717 1.523,1.475 2.179,2.356 0.692,0.851 1.303,1.769 1.888,2.617 0.586,0.848 1.132,1.64 1.601,2.319 0.937,1.362 1.562,2.268 1.562,2.268 0.148,0.214 0.443,0.268 0.657,0.12 C 0.03,0.457 0.092,0.205 0,0" /></g><g
                   transform="translate(206.6692,207.2265)"
                   id="g862"><path
                     id="path864"
                     style="fill:#000000;fill-opacity:1;fill-rule:nonzero;stroke:none"
                     d="m 0,0 c 0,0 -0.106,-0.144 -0.293,-0.393 -0.193,-0.25 -0.485,-0.598 -0.86,-0.977 -0.364,-0.396 -0.833,-0.812 -1.347,-1.24 -0.515,-0.432 -1.134,-0.805 -1.698,-1.243 -0.3,-0.198 -0.602,-0.394 -0.886,-0.604 -0.287,-0.211 -0.552,-0.445 -0.847,-0.614 -0.605,-0.325 -1.198,-0.565 -1.698,-0.782 -1.084,-0.281 -1.797,-0.4 -1.797,-0.4 -0.206,-0.035 -0.402,0.104 -0.437,0.311 -0.028,0.165 0.056,0.323 0.196,0.397 L -9.6,-5.51 c 0,0 0.614,0.328 1.52,0.716 0.448,0.234 0.936,0.572 1.503,0.84 0.552,0.308 1.17,0.611 1.715,1.02 0.533,0.432 1.065,0.863 1.532,1.303 0.484,0.423 0.936,0.818 1.324,1.155 0.39,0.334 0.716,0.611 0.944,0.806 0.235,0.194 0.369,0.308 0.369,0.308 l 0.011,0.008 c 0.2,0.168 0.498,0.14 0.666,-0.059 C 0.127,0.415 0.128,0.172 0,0" /></g><g
                   id="g1022"
                   style="fill:#a02c2c"><g
                     id="g1024"
                     style="fill:#a02c2c" /><g
                     id="g1036"
                     style="fill:#a02c2c"><g
                       style="opacity:0.30000299;fill:#a02c2c"
                       id="g1034"
                       clip-path="url(#clipPath1028)"><g
                         id="g1032"
                         transform="translate(171.9319,250.1372)"
                         style="fill:#a02c2c"><path
                           id="path1030"
                           style="fill:#a02c2c;fill-opacity:1;fill-rule:nonzero;stroke:none"
                           d="M 0,0 C 0.246,5.658 -4.136,10.447 -9.795,10.696 -15.454,10.945 -20.24,6.56 -20.491,0.902 -20.74,-4.754 -16.354,-9.543 -10.695,-9.792 -5.04,-10.042 -0.25,-5.658 0,0" /></g></g></g></g><g
                   id="g1038"
                   style="fill:#c83737"><g
                     id="g1040"
                     style="fill:#c83737" /><g
                     id="g1052"
                     style="fill:#c83737"><g
                       style="opacity:0.30000299;fill:#c83737"
                       id="g1050"
                       clip-path="url(#clipPath1044)"><g
                         id="g1048"
                         transform="translate(212.5765,244.2734)"
                         style="fill:#c83737"><path
                           id="path1046"
                           style="fill:#c83737;fill-opacity:1;fill-rule:nonzero;stroke:none"
                           d="M 0,0 C 0.247,5.659 -4.136,10.447 -9.794,10.695 -15.453,10.944 -20.24,6.559 -20.489,0.902 -20.74,-4.755 -16.354,-9.544 -10.695,-9.793 -5.039,-10.042 -0.25,-5.655 0,0" /></g></g></g></g></g></g></g></g></g></g></g></svg>